<svg width="32" height="32" viewBox="0 0 32 32" fill="none" xmlns="http://www.w3.org/2000/svg">
<path d="M25 8V29C25 30.105 24.105 31 23 31H5C3.895 31 3 30.105 3 29V3C3 1.895 3.895 1 5 1H23C23.812 1 24.51 1.481 24.824 2.176" stroke="#261F18" stroke-width="2" stroke-miterlimit="10"/>
<path d="M21 12V23H7V5H21V6" stroke="#261F18" stroke-width="2" stroke-miterlimit="10"/>
<path d="M14 28C14.5523 28 15 27.5523 15 27C15 26.4477 14.5523 26 14 26C13.4477 26 13 26.4477 13 27C13 27.5523 13.4477 28 14 28Z" stroke="#261F18" stroke-width="2" stroke-miterlimit="10" stroke-linecap="square"/>
<path d="M20 13L17 10L25.379 1.621C26.207 0.793 27.551 0.793 28.379 1.621C29.207 2.449 29.207 3.793 28.379 4.621L20 13Z" stroke="#261F18" stroke-width="2" stroke-miterlimit="10" stroke-linecap="square"/>
<path d="M11.9059 13.874C13.0709 12.709 14.9609 12.709 16.1259 13.874C17.2909 15.039 17.2909 16.929 16.1259 18.094C14.9609 19.259 10.9999 19 10.9999 19C10.9999 19 10.8899 14.89 11.9059 13.874Z" stroke="#261F18" stroke-width="2" stroke-miterlimit="10" stroke-linecap="square"/>
</svg>
