<svg width="37" height="32" viewBox="0 0 37 32" fill="none" xmlns="http://www.w3.org/2000/svg">
<rect y="0.5" width="36.3989" height="31" rx="15.5" fill="#D5B8B8"/>
<path fill-rule="evenodd" clip-rule="evenodd" d="M12.5668 13.5899L10 16.628L10.6752 17.1985L19.2318 7.07044L18.5566 6.5L15.9894 9.53863L14.3012 8.11234L10.8786 12.1636L12.5668 13.5899ZM13.1372 12.9146L15.419 10.2138L14.406 9.35798L12.1242 12.0588L13.1372 12.9146ZM13.3303 23.7322V15.335H12.4464V23.7322C12.4464 24.201 12.6327 24.6507 12.9642 24.9822C13.2958 25.3138 13.7454 25.5 14.2143 25.5H21.2856C21.7544 25.5 22.2041 25.3138 22.5356 24.9822C22.8671 24.6507 23.0534 24.201 23.0534 23.7322V15.335H22.1695V23.7322C22.1695 23.9666 22.0764 24.1914 21.9106 24.3572C21.7448 24.523 21.52 24.6161 21.2856 24.6161H14.2143C13.9798 24.6161 13.755 24.523 13.5892 24.3572C13.4235 24.1914 13.3303 23.9666 13.3303 23.7322ZM18.1917 22.8484V17.5449H17.3078V22.8484H18.1917ZM15.9813 17.5449V22.8484H15.0974V17.5449H15.9813ZM20.4006 22.8484V17.5449H19.5167V22.8484H20.4006ZM24.151 7.23745C23.955 7.35 23.7883 7.50739 23.6639 7.69731C23.5395 7.88723 23.4608 8.10453 23.4339 8.33225C23.2232 8.24168 22.9957 8.2012 22.769 8.21397C22.5423 8.22673 22.3227 8.29241 22.1272 8.40586C21.8759 8.55007 21.6735 8.76659 21.545 9.02854C21.4165 9.29049 21.3677 9.58635 21.4046 9.8794C21.4414 10.1725 21.5623 10.4498 21.7523 10.677C21.9423 10.9043 22.193 11.0714 22.4733 11.1576L25.4317 12.0475C25.4548 12.0544 25.4789 12.0566 25.5026 12.054C25.5264 12.0513 25.5492 12.0438 25.5698 12.0319C25.5905 12.02 25.6084 12.0039 25.6226 11.9847C25.6368 11.9655 25.6469 11.9435 25.6524 11.9201L26.361 8.91305L26.3614 8.91118C26.4265 8.62539 26.4068 8.32489 26.3049 8.04696C26.2029 7.76902 26.0231 7.52587 25.7877 7.34766C25.5524 7.16944 25.2718 7.064 24.9809 7.04441C24.6899 7.02482 24.4013 7.09194 24.151 7.23745ZM15.584 13.7024C15.5838 13.7417 15.5949 13.7801 15.6159 13.8131L16.7661 15.6055C16.7823 15.6308 16.804 15.6522 16.8296 15.668C16.8552 15.6838 16.884 15.6937 16.9141 15.697C16.9441 15.7003 16.9746 15.6968 17.0034 15.6869C17.0321 15.677 17.0584 15.6609 17.0804 15.6397L18.5797 14.1961C18.5845 14.1911 18.5889 14.1858 18.5931 14.1803C18.6172 14.152 18.6333 14.1179 18.6399 14.0815C18.6464 14.045 18.643 14.0077 18.6302 13.9733C18.6173 13.9389 18.5954 13.9087 18.5667 13.886C18.538 13.8632 18.5037 13.8487 18.4672 13.844L17.3662 13.6992C17.5833 12.9273 18.0315 12.2378 18.6498 11.7245C19.268 11.2112 20.0262 10.899 20.8212 10.8305C20.8484 10.8286 20.875 10.8212 20.8995 10.8089C20.9241 10.7966 20.9459 10.7795 20.9639 10.7587C20.9819 10.7379 20.9956 10.7138 21.0043 10.6877C21.013 10.6617 21.0164 10.6343 21.0144 10.6071C21.0124 10.5798 21.005 10.5534 20.9926 10.5292C20.9803 10.505 20.9632 10.4837 20.9424 10.4663C20.9216 10.4489 20.8975 10.436 20.8715 10.4281C20.8455 10.4203 20.8182 10.4177 20.791 10.4206C19.6512 10.5251 18.5918 11.0755 17.8428 11.9523C17.4272 12.446 17.1248 13.0245 16.9575 13.6459L15.8186 13.4961C15.7798 13.4911 15.7401 13.4973 15.7044 13.5141C15.6686 13.531 15.6383 13.5576 15.6169 13.591C15.5956 13.6244 15.5842 13.663 15.584 13.7024Z" fill="#1E3643"/>
</svg>
