<svg width="20" height="20" viewBox="0 0 20 20" fill="none" xmlns="http://www.w3.org/2000/svg">
<g clip-path="url(#clip0_1_210)">
<path d="M12.7728 17.205V15.6216C12.7728 14.7818 12.4392 13.9763 11.8453 13.3825C11.2515 12.7886 10.446 12.455 9.60616 12.455H4.06449C3.22464 12.455 2.41919 12.7886 1.82532 13.3825C1.23146 13.9763 0.897827 14.7818 0.897827 15.6216V17.205M13.5645 9.28829L15.1478 10.8716L18.3145 7.70496M10.002 6.12162C10.002 7.87052 8.58423 9.28829 6.83533 9.28829C5.08643 9.28829 3.66866 7.87052 3.66866 6.12162C3.66866 4.37272 5.08643 2.95496 6.83533 2.95496C8.58423 2.95496 10.002 4.37272 10.002 6.12162Z" stroke="white" stroke-width="1.58333" stroke-linecap="round" stroke-linejoin="round"/>
</g>
<defs>
<clipPath id="clip0_1_210">
<rect width="19" height="19" fill="white" transform="translate(0.106201 0.579956)"/>
</clipPath>
</defs>
</svg>
